<?xml version="1.0" standalone="no"?>
<!DOCTYPE svg PUBLIC "-//W3C//DTD SVG 20010904//EN"
 "http://www.w3.org/TR/2001/REC-SVG-20010904/DTD/svg10.dtd">
<svg version="1.0" xmlns="http://www.w3.org/2000/svg"
 width="785.000000pt" height="234.000000pt" viewBox="0 0 785.000000 234.000000"
 preserveAspectRatio="xMidYMid meet">
<metadata>
Created by CoolUtils
</metadata>
<g transform="translate(0.000000,234.000000) scale(0.100000,-0.100000)"
fill="#000000" stroke="none">
<path d="M695 2026 l7 -96 -278 0 -278 0 22 -22 c21 -22 26 -22 238 -19 l217
3 -49 -62 c-90 -115 -223 -225 -379 -314 -58 -33 -75 -47 -62 -51 25 -10 249
103 346 175 46 34 115 94 153 133 l70 72 -7 -197 -8 -198 47 16 46 16 0 204
c0 115 4 204 9 204 5 0 23 -24 39 -54 70 -123 193 -238 327 -305 64 -32 85
-38 85 -21 0 12 37 32 75 40 48 9 36 31 -25 47 -155 39 -293 116 -393 218 -58
59 -67 75 -44 75 6 1 110 1 230 2 119 0 217 4 217 7 0 4 -24 30 -53 59 l-53
52 -39 -40 -39 -40 -168 0 -168 0 0 44 c0 35 5 49 24 64 l25 19 -37 18 c-20
10 -52 24 -71 32 l-33 14 7 -95z"/>
<path d="M2900 2083 c-1 -5 0 -83 0 -175 l1 -168 -138 0 -138 0 25 -25 c24
-23 28 -24 90 -15 36 5 152 10 258 10 165 0 192 -2 192 -15 0 -17 -61 -139
-83 -167 -11 -14 -30 -18 -87 -18 -69 0 -72 1 -58 18 24 27 27 58 9 89 -19 30
-116 89 -125 75 -3 -5 7 -26 21 -47 15 -22 35 -61 45 -87 l18 -48 -127 0 -128
0 25 -25 c24 -24 28 -24 110 -17 47 4 108 6 137 4 l51 -3 4 -65 3 -64 -140 0
-140 0 25 -25 c24 -24 28 -24 110 -17 123 10 140 7 140 -27 0 -16 -3 -43 -6
-60 l-6 -31 -192 0 -191 0 25 -23 c25 -23 27 -23 188 -18 89 3 162 4 162 1 0
-21 -84 -119 -134 -157 -63 -48 -189 -112 -263 -134 -44 -13 -58 -29 -24 -29
37 0 197 51 268 86 86 41 170 116 204 178 13 26 26 46 29 46 3 0 14 -17 25
-37 36 -68 153 -175 242 -221 l83 -43 12 26 c7 16 25 29 50 37 21 6 37 16 35
21 -2 6 -34 17 -73 24 -96 19 -222 82 -292 148 l-57 54 105 2 c58 0 151 0 208
-1 56 -1 102 3 102 7 0 5 -20 28 -44 52 l-45 44 -36 -31 -36 -32 -136 0 -135
0 4 55 c3 30 7 58 11 61 3 3 71 5 151 5 80 -1 146 2 146 6 0 4 -18 28 -39 52
l-38 45 -39 -32 c-36 -29 -44 -32 -111 -32 l-73 0 0 65 0 65 53 0 c28 1 109 1
180 2 70 0 127 3 127 5 0 2 -19 26 -42 53 l-42 48 -40 -34 c-37 -32 -44 -34
-110 -34 l-70 0 49 51 c28 28 65 58 84 66 l34 15 -48 31 -49 32 152 5 153 5
-45 45 -46 44 -33 -32 c-31 -31 -37 -32 -112 -32 l-80 0 90 91 c50 50 101 95
115 101 l25 10 -44 38 -45 39 -41 -77 c-23 -42 -55 -97 -71 -121 l-29 -45 -3
114 c-2 104 -1 115 19 136 l21 22 -47 21 c-26 12 -51 21 -56 21 -5 0 -9 -79
-9 -175 l0 -175 -75 0 -75 0 0 136 c0 128 1 137 22 154 l22 17 -48 22 c-52 22
-66 25 -66 14z"/>
<path d="M4515 2081 c-3 -6 8 -36 24 -69 16 -32 37 -84 46 -115 19 -65 40 -74
74 -31 26 33 27 68 1 109 -23 37 -136 120 -145 106z"/>
<path d="M5281 2059 l-22 -29 -115 0 c-95 0 -122 3 -154 20 -22 11 -42 20 -45
20 -3 0 -5 -48 -5 -107 0 -195 -35 -280 -161 -397 -38 -35 -69 -69 -69 -75 0
-20 116 48 179 105 36 33 70 76 85 107 31 62 56 171 56 245 l0 52 120 0 120 0
0 -164 0 -165 26 -20 c24 -19 40 -21 170 -21 78 0 145 3 148 8 8 14 -22 70
-43 77 -11 3 -37 1 -58 -4 -52 -15 -128 -14 -141 2 -6 7 -12 67 -13 140 -1
119 0 128 20 145 l22 17 -49 37 -49 36 -22 -29z"/>
<path d="M7250 1853 c0 -130 -2 -238 -4 -240 -2 -2 -86 -4 -186 -4 l-182 -1
27 -27 c24 -26 30 -27 68 -20 23 4 95 8 159 9 l118 0 2 -374 3 -375 45 20 45
19 -3 355 -3 355 213 0 213 0 -52 52 -53 52 -32 -32 c-37 -35 -42 -36 -190
-33 l-98 1 0 183 c0 172 1 185 20 202 11 10 19 22 18 27 -2 4 -31 21 -65 37
l-62 30 -1 -236z"/>
<path d="M6620 2064 c0 -3 22 -30 49 -60 27 -30 61 -79 76 -110 14 -30 33 -58
41 -61 25 -9 54 26 54 67 0 31 -7 44 -40 74 -55 49 -180 112 -180 90z"/>
<path d="M2700 2021 c0 -5 11 -34 25 -66 14 -31 30 -79 36 -106 6 -27 16 -49
23 -49 24 0 56 46 56 80 0 28 -10 44 -60 92 -56 55 -80 69 -80 49z"/>
<path d="M2575 1990 l-29 -30 -163 0 c-90 0 -163 -4 -163 -8 0 -5 8 -17 19
-26 16 -14 31 -16 95 -10 l76 7 0 -172 0 -171 -87 0 -86 0 22 -24 c23 -25 29
-25 124 -11 l27 5 -2 -197 -3 -197 -92 -30 c-51 -17 -93 -34 -93 -38 0 -5 12
-26 26 -48 l26 -40 37 29 c40 31 197 118 309 171 39 18 72 39 72 47 0 17 5 18
-105 -22 l-95 -34 0 179 0 180 91 0 92 0 -39 43 -39 44 -30 -29 c-17 -15 -41
-28 -53 -28 -22 0 -22 1 -22 170 l0 169 99 3 99 3 -42 48 -41 48 -30 -31z"/>
<path d="M4597 1675 c-17 -24 -23 -25 -127 -25 -61 0 -110 -4 -110 -8 0 -5 10
-18 23 -30 19 -18 28 -20 62 -12 22 5 61 10 88 10 l47 0 0 -275 c0 -203 -3
-281 -12 -296 -12 -18 -9 -24 27 -55 22 -18 42 -34 45 -34 3 1 28 35 57 78 28
42 83 115 122 162 98 117 77 126 -41 18 -51 -46 -99 -88 -105 -92 -10 -6 -13
43 -13 232 l0 240 31 20 31 19 -51 37 c-28 20 -52 36 -54 36 -1 0 -10 -12 -20
-25z"/>
<path d="M6715 1640 c-29 -30 -29 -30 -144 -30 l-116 0 25 -25 c24 -23 29 -24
90 -17 36 4 78 6 93 4 l28 -3 -2 -306 -2 -305 35 -41 34 -41 44 64 c24 36 79
112 122 169 72 96 94 147 44 104 -11 -11 -58 -51 -102 -91 -45 -40 -84 -72
-88 -72 -3 0 -6 112 -6 249 l0 250 27 21 27 21 -40 40 -40 39 -29 -30z"/>
<path d="M944 1490 l6 -100 -127 0 c-125 0 -126 0 -108 -20 15 -17 26 -19 97
-13 l80 6 -16 -38 c-41 -98 -165 -266 -256 -348 -44 -40 -62 -67 -44 -67 11 0
105 70 167 123 32 28 88 89 124 136 37 47 70 90 75 96 4 5 5 -96 2 -224 -6
-226 -6 -234 12 -227 11 5 31 12 46 18 l27 10 -6 251 c-3 139 -3 250 0 247 3
-3 17 -38 31 -79 36 -102 87 -190 152 -260 l55 -59 23 23 c13 13 40 27 60 30
20 4 36 11 36 15 0 4 -26 20 -57 36 -71 34 -167 128 -215 210 -65 111 -72 104
98 104 l148 0 -49 50 -49 50 -36 -35 c-35 -34 -38 -35 -118 -35 l-82 0 0 53
c0 48 3 55 25 65 14 6 25 15 25 20 0 9 -104 62 -121 62 -7 0 -8 -34 -5 -100z"/>
<path d="M5359 1561 l-23 -31 -244 0 -245 0 18 -20 c14 -16 29 -20 58 -18 l39
3 18 -72 c23 -87 71 -205 109 -265 l29 -46 -41 -39 c-80 -77 -187 -137 -342
-193 -49 -18 -96 -34 -104 -37 -9 -2 -11 -7 -5 -13 11 -11 148 18 239 50 76
26 187 82 245 124 25 18 50 35 56 39 6 3 42 -18 80 -48 62 -50 194 -123 250
-139 16 -5 23 -1 27 14 3 13 25 29 56 43 56 24 63 34 29 41 -142 27 -192 41
-262 76 -129 63 -125 56 -71 136 48 72 129 229 140 276 4 16 18 31 36 38 16 7
29 15 28 19 -1 3 -23 25 -49 49 l-48 43 -23 -30z m-24 -83 c-24 -80 -107 -248
-150 -303 -15 -19 -16 -19 -40 10 -45 56 -145 265 -145 305 0 6 66 10 171 10
l170 0 -6 -22z"/>
<path d="M390 1480 l0 -90 -152 0 c-148 0 -151 0 -134 -19 16 -17 28 -18 142
-13 l126 5 -17 -39 c-46 -112 -130 -238 -223 -336 -29 -31 -49 -59 -44 -62 22
-14 181 133 259 238 l43 58 0 -205 0 -205 40 15 40 16 0 200 0 201 31 -30 c17
-16 49 -53 71 -82 22 -29 45 -51 51 -49 17 5 31 61 23 92 -8 30 -50 59 -123
82 l-53 17 0 43 0 43 112 0 113 0 -47 47 -48 47 -33 -32 c-23 -22 -42 -32 -65
-32 -31 0 -32 2 -32 41 0 30 6 46 22 59 l22 18 -62 31 -62 31 0 -90z"/>
<path d="M1447 379 c-17 -14 -30 -38 -33 -59 -8 -48 19 -79 101 -120 80 -40
102 -73 85 -126 -13 -37 -35 -54 -74 -54 -40 0 -73 20 -92 56 -10 18 -20 32
-22 30 -2 -3 0 -25 3 -50 5 -33 11 -44 19 -37 7 6 26 6 52 -1 78 -21 144 21
144 92 0 51 -29 84 -111 125 -73 37 -94 62 -83 98 11 38 35 57 71 57 45 0 69
-14 94 -53 l21 -32 -7 40 c-4 22 -8 41 -9 43 -2 1 -32 5 -68 9 -58 5 -67 3
-91 -18z"/>
<path d="M1703 393 c16 -4 18 -19 15 -189 l-3 -184 29 0 c23 0 26 3 17 13 -7
9 -10 70 -8 183 l2 169 58 3 c54 3 60 1 88 -29 33 -35 33 -35 18 10 l-11 31
-111 -1 c-62 -1 -104 -3 -94 -6z"/>
<path d="M1998 389 l23 -9 -3 -180 c-3 -174 -2 -180 17 -180 19 0 20 6 17 95
l-3 95 28 0 c27 0 31 -5 63 -95 25 -69 40 -95 52 -95 14 0 11 15 -22 95 -21
52 -35 95 -30 95 5 0 22 12 39 26 25 21 31 33 31 66 0 54 -14 75 -58 88 -48
13 -187 13 -154 -1z m156 -20 c21 -17 26 -29 26 -65 0 -60 -25 -84 -85 -84
l-45 0 0 85 0 85 39 0 c24 0 48 -8 65 -21z"/>
<path d="M2288 389 l23 -9 -3 -180 c-3 -174 -2 -180 17 -180 19 0 20 6 17 185
l-3 185 56 0 c49 0 60 -4 86 -29 31 -31 35 -28 19 13 -9 26 -10 26 -122 25
-80 0 -106 -3 -90 -10z"/>
<path d="M2573 393 c16 -4 18 -19 15 -189 -2 -118 1 -184 7 -184 6 0 9 40 7
107 -2 60 -2 135 0 168 l3 60 90 -170 c87 -164 90 -169 93 -131 2 21 -1 42 -6
45 -5 3 -44 72 -88 153 -76 141 -80 148 -109 147 -18 -1 -23 -3 -12 -6z"/>
<path d="M2768 390 c13 -6 31 -6 45 0 18 7 14 9 -23 9 -37 0 -41 -2 -22 -9z"/>
<path d="M2862 393 c26 -7 30 -34 26 -212 -3 -155 -2 -161 17 -161 19 0 20 7
20 182 l0 183 30 6 c19 4 5 7 -40 7 -38 0 -62 -2 -53 -5z"/>
<path d="M3220 391 l35 -6 0 -183 c0 -175 1 -182 20 -182 19 0 20 7 20 182 l0
183 35 6 c21 4 -1 6 -55 6 -54 0 -76 -2 -55 -6z"/>
<path d="M3453 393 c16 -4 18 -19 15 -189 l-3 -184 29 0 c22 0 26 3 18 13 -8
9 -11 72 -9 183 l2 169 39 3 c21 2 51 -2 67 -8 62 -26 59 -138 -5 -166 -19 -8
-24 -13 -13 -14 64 -1 114 78 86 136 -22 45 -71 64 -164 63 -44 -1 -72 -3 -62
-6z"/>
<path d="M3803 393 l38 -4 -3 -185 c-3 -178 -2 -184 17 -184 19 0 20 7 20 182
l0 183 35 6 c21 4 -2 6 -55 6 -49 0 -73 -2 -52 -4z"/>
<path d="M4032 358 c-8 -34 -8 -39 1 -24 23 37 47 56 72 56 l26 0 -3 -185 c-3
-179 -2 -185 17 -185 19 0 20 6 17 180 -2 155 -1 181 13 186 28 11 61 -5 78
-38 l17 -33 -6 35 c-4 19 -8 38 -11 43 -2 4 -51 7 -107 7 l-104 0 -10 -42z"/>
<path d="M4322 390 c9 -6 35 -58 58 -117 37 -97 41 -115 38 -180 l-3 -73 30 0
c22 0 26 3 17 12 -7 7 -12 39 -12 73 0 49 8 83 40 161 22 54 50 107 61 117 21
17 21 17 -22 17 -37 0 -41 -2 -25 -13 19 -14 19 -13 -44 -172 -14 -36 -17 -32
-59 83 -28 75 -29 82 -13 91 13 8 5 10 -33 10 -37 0 -46 -2 -33 -9z"/>
<path d="M4908 390 c23 -10 23 -10 20 -190 -3 -174 -2 -180 17 -180 19 0 20 7
20 182 l0 183 30 6 c20 4 6 7 -40 7 -52 1 -64 -2 -47 -8z"/>
<path d="M5203 393 c16 -4 18 -19 15 -189 l-3 -184 29 0 c22 0 26 3 18 13 -12
14 -16 315 -5 343 3 10 22 14 60 14 49 0 58 -4 84 -31 33 -35 33 -35 18 10
l-11 31 -111 -1 c-62 -1 -104 -3 -94 -6z"/>
<path d="M5600 393 c40 -5 56 -17 82 -58 l18 -30 0 37 c0 20 -4 39 -9 42 -5 4
-36 8 -68 10 -32 2 -42 1 -23 -1z"/>
<path d="M5843 393 l38 -4 -3 -185 -3 -184 29 0 c23 0 26 3 17 14 -8 9 -11 66
-9 182 l3 169 40 6 c25 4 4 6 -55 6 -52 0 -78 -2 -57 -4z"/>
<path d="M6137 380 c-46 -37 -70 -96 -71 -175 0 -153 82 -230 188 -177 35 17
36 18 36 79 0 50 3 62 18 66 9 3 -8 5 -38 5 -30 0 -48 -2 -40 -5 23 -9 30 -24
30 -68 0 -50 -23 -85 -56 -85 -68 0 -103 63 -104 183 0 118 35 187 96 187 32
0 45 -11 81 -66 10 -16 11 -14 6 16 -8 46 -11 50 -69 56 -41 5 -54 2 -77 -16z"/>
<path d="M6363 393 c16 -4 18 -19 15 -189 -2 -118 1 -184 7 -184 6 0 9 40 7
107 -2 60 -2 135 0 168 l3 60 90 -170 c87 -164 90 -169 93 -131 2 21 -1 42 -6
45 -5 3 -44 72 -88 153 -76 141 -80 148 -109 147 -18 -1 -23 -3 -12 -6z"/>
<path d="M6558 390 c13 -6 31 -6 45 0 18 7 14 9 -23 9 -37 0 -41 -2 -22 -9z"/>
<path d="M3018 365 c38 -32 57 -104 49 -191 -8 -79 -29 -121 -70 -139 -21 -9
-25 -14 -14 -15 33 0 77 34 97 75 14 30 20 62 20 113 0 83 -16 129 -55 160
-39 31 -64 28 -27 -3z"/>
<path d="M5051 375 c38 -21 59 -82 58 -168 0 -93 -15 -136 -58 -164 -41 -28
-19 -31 25 -4 46 28 67 82 68 171 0 52 -5 85 -17 107 -19 36 -63 73 -86 73
-10 -1 -7 -6 10 -15z"/>
<path d="M5521 369 c-54 -58 -33 -110 67 -162 85 -45 107 -72 98 -121 -8 -41
-25 -57 -74 -67 -35 -8 -35 -8 8 -4 59 5 90 39 90 99 0 52 -22 75 -118 126
-60 31 -67 38 -70 68 -2 19 4 44 13 58 19 30 12 31 -14 3z"/>
<path d="M890 235 l-55 -55 58 -58 57 -57 57 57 58 58 -55 55 c-30 30 -57 55
-60 55 -3 0 -30 -25 -60 -55z"/>
<path d="M6970 235 l-55 -55 58 -58 57 -57 57 57 58 58 -55 55 c-30 30 -57 55
-60 55 -3 0 -30 -25 -60 -55z"/>
<path d="M1870 266 c0 -8 -7 -22 -17 -31 -11 -12 -13 -19 -5 -24 6 -3 15 -18
21 -31 8 -21 10 -14 10 38 1 34 -1 62 -4 62 -3 0 -5 -6 -5 -14z"/>
<path d="M2450 260 c0 -11 -7 -23 -15 -27 -14 -5 -14 -8 -1 -22 7 -9 16 -25
19 -36 2 -11 5 8 6 43 0 34 -1 62 -4 62 -3 0 -5 -9 -5 -20z"/>
<path d="M5370 266 c0 -8 -7 -22 -17 -31 -11 -12 -13 -19 -5 -24 6 -3 15 -18
21 -31 8 -21 10 -14 10 38 1 34 -1 62 -4 62 -3 0 -5 -6 -5 -14z"/>
<path d="M5494 91 c4 -18 6 -41 6 -51 0 -14 8 -18 35 -18 l35 0 -26 21 c-15
11 -33 34 -41 51 l-14 31 5 -34z"/>
<path d="M1918 69 c-10 -16 -28 -34 -40 -39 -21 -8 -21 -9 9 -9 29 -1 33 3 42
36 13 46 10 50 -11 12z"/>
<path d="M5418 69 c-10 -16 -28 -34 -40 -39 -21 -8 -21 -9 9 -9 29 -1 33 3 42
36 13 46 10 50 -11 12z"/>
<path d="M2483 52 l-33 -33 27 3 c20 2 29 11 35 32 4 17 6 30 5 31 -1 0 -17
-15 -34 -33z"/>
</g>
</svg>
