<svg id="Layer_1" data-name="Layer 1" xmlns="http://www.w3.org/2000/svg" viewBox="0 0 187.39 55.11"><defs><style>.cls-1{fill:#fff;}</style></defs><path class="cls-1" d="M1.14,37.64V34.33L3.42,34,13.77,6.36H19L29.26,34l2.28.32v3.31H21.59V34.33l2.24-.41L22.17,29H10.53l-1.7,4.92,2.26.41v3.31ZM12,24.86h8.83L16.71,13.28l-.27-.84h-.13l-.3.88Z" transform="translate(-1.14 -6.36)"/><path class="cls-1" d="M47.87,38.09a14.24,14.24,0,0,1-6.21-1.28,9.78,9.78,0,0,1-4.22-3.68,10.73,10.73,0,0,1-1.52-5.82v-17l-3.41-.64V6.36H44.73V9.69l-3.42.64v17A7.48,7.48,0,0,0,42.13,31a5.2,5.2,0,0,0,2.3,2.2,7.7,7.7,0,0,0,3.46.73,7.89,7.89,0,0,0,3.53-.73A5.28,5.28,0,0,0,53.74,31a7.33,7.33,0,0,0,.83-3.65v-17l-3.42-.64V6.36H63.38V9.69l-3.4.64v17a10.78,10.78,0,0,1-1.51,5.86,9.6,9.6,0,0,1-4.24,3.66A15,15,0,0,1,47.87,38.09Z" transform="translate(-1.14 -6.36)"/><path class="cls-1" d="M73.35,37.64V34.33l3.41-.64V10.51H70.47l-.47,4H65.94V6.36H93V14.5H89l-.48-4H82.18V33.69l3.41.64v3.31Z" transform="translate(-1.14 -6.36)"/><path class="cls-1" d="M95.91,37.64V34.33l3.41-.64V10.33l-3.41-.64V6.36h12.24V9.69l-3.41.64v9.76h13.68V10.33L115,9.69V6.36h12.22V9.69l-3.42.64V33.69l3.42.64v3.31H115V34.33l3.41-.64V24.3H104.74v9.39l3.41.64v3.31Z" transform="translate(-1.14 -6.36)"/><path class="cls-1" d="M128.61,37.64V34.33l2.27-.32L141.24,6.36h5.26L156.73,34l2.28.32v3.31h-9.95V34.33l2.23-.41L149.64,29H138l-1.69,4.92,2.25.41v3.31Zm10.8-12.78h8.83l-4.06-11.58-.28-.84h-.13l-.3.88Z" transform="translate(-1.14 -6.36)"/><path class="cls-1" d="M161.56,37.64V34.33l3.42-.64V10.33l-3.42-.64V6.36H176a15.1,15.1,0,0,1,6,1.08,8.38,8.38,0,0,1,3.8,3.11,8.8,8.8,0,0,1,1.31,4.88,8.7,8.7,0,0,1-1.3,4.79,8.78,8.78,0,0,1-3.63,3.17,12.89,12.89,0,0,1-5.47,1.17l-6.36.06v9.07l3.42.64v3.31Zm8.83-17.23h5.4a6.86,6.86,0,0,0,4.51-1.24,4.44,4.44,0,0,0,1.46-3.59,4.84,4.84,0,0,0-1.42-3.67A6,6,0,0,0,176,10.55h-5.63Zm11.52,17.23-6-14.39,5.07-.84,5.07,11.36,2.45.52v3.35Z" transform="translate(-1.14 -6.36)"/><path class="cls-1" d="M35.25,61.37V53H39a3.73,3.73,0,0,1,2.23.58A1.88,1.88,0,0,1,42,55.14a2.05,2.05,0,0,1-.31,1.16,2,2,0,0,1-.82.72,2.58,2.58,0,0,1-1.11.25l.21-.36a3,3,0,0,1,1.27.25,2,2,0,0,1,1.2,1.94,2,2,0,0,1-.81,1.68,4.08,4.08,0,0,1-2.4.59Zm1.2-1h2.76a2.78,2.78,0,0,0,1.52-.34A1.13,1.13,0,0,0,41.26,59a1.15,1.15,0,0,0-.53-1.07,2.88,2.88,0,0,0-1.52-.34H36.34v-1h2.57a2.59,2.59,0,0,0,1.42-.33,1.15,1.15,0,0,0,.5-1,1.14,1.14,0,0,0-.5-1,2.59,2.59,0,0,0-1.42-.34H36.45Z" transform="translate(-1.14 -6.36)"/><path class="cls-1" d="M53,61.47a4.74,4.74,0,0,1-1.78-.33,4.1,4.1,0,0,1-1.42-.9,4.41,4.41,0,0,1-.94-4.77,4.19,4.19,0,0,1,.94-1.36,4.27,4.27,0,0,1,1.42-.91A4.7,4.7,0,0,1,53,52.88a4.84,4.84,0,0,1,1.77.31,4.52,4.52,0,0,1,1.42.9,4.19,4.19,0,0,1,.94,1.37,4.62,4.62,0,0,1,0,3.43,4.15,4.15,0,0,1-.94,1.36,4.19,4.19,0,0,1-1.42.9A4.84,4.84,0,0,1,53,61.47Zm0-1.07a3.37,3.37,0,0,0,1.29-.24,3.18,3.18,0,0,0,1-.68,3.09,3.09,0,0,0,.68-1,3.41,3.41,0,0,0,.25-1.29A3.36,3.36,0,0,0,56,55.89a3.13,3.13,0,0,0-.68-1,3.18,3.18,0,0,0-1-.68A3.37,3.37,0,0,0,53,53.94a3.46,3.46,0,0,0-1.3.24,3.29,3.29,0,0,0-1,.68,3.16,3.16,0,0,0-.93,2.31A3.4,3.4,0,0,0,50,58.46a3.14,3.14,0,0,0,1.73,1.7A3.46,3.46,0,0,0,53,60.4Z" transform="translate(-1.14 -6.36)"/><path class="cls-1" d="M68,61.47a4.74,4.74,0,0,1-1.78-.33,4.1,4.1,0,0,1-1.42-.9,4.41,4.41,0,0,1-.94-4.77,4.19,4.19,0,0,1,.94-1.36,4.33,4.33,0,0,1,1.41-.91A4.75,4.75,0,0,1,68,52.88a4.84,4.84,0,0,1,1.77.31,4.64,4.64,0,0,1,1.42.9,4.16,4.16,0,0,1,.93,1.37,4.62,4.62,0,0,1,0,3.43,4.12,4.12,0,0,1-.93,1.36,4.29,4.29,0,0,1-1.42.9A4.84,4.84,0,0,1,68,61.47Zm0-1.07a3.37,3.37,0,0,0,1.29-.24,3,3,0,0,0,1-.68,3.12,3.12,0,0,0,.69-1,3.4,3.4,0,0,0,.24-1.29A3.35,3.35,0,0,0,71,55.89a3.16,3.16,0,0,0-.69-1,3,3,0,0,0-1-.68A3.37,3.37,0,0,0,68,53.94a3.46,3.46,0,0,0-1.3.24,3.18,3.18,0,0,0-1,.68,3.16,3.16,0,0,0-.93,2.31A3.4,3.4,0,0,0,65,58.46a3.28,3.28,0,0,0,.69,1,3.18,3.18,0,0,0,1,.68A3.46,3.46,0,0,0,68,60.4Z" transform="translate(-1.14 -6.36)"/><path class="cls-1" d="M79.22,61.37V53h1.2v8.4Zm1-2-.06-1.46L85,53h1.37l-3.69,3.89L82,57.6Zm4.9,2-3.44-4,.8-.88,4,4.89Z" transform="translate(-1.14 -6.36)"/><path class="cls-1" d="M103.34,61.47a5.68,5.68,0,0,1-1.84-.3,3.77,3.77,0,0,1-1.38-.76l.45-.93a3.75,3.75,0,0,0,1.22.69,4.3,4.3,0,0,0,1.55.28,3.57,3.57,0,0,0,1.19-.17,1.48,1.48,0,0,0,.67-.46,1.13,1.13,0,0,0,.21-.67.88.88,0,0,0-.28-.69,2.08,2.08,0,0,0-.73-.43,7.8,7.8,0,0,0-1-.28c-.36-.08-.72-.18-1.09-.28a4.91,4.91,0,0,1-1-.42,2.07,2.07,0,0,1-.73-.68,2,2,0,0,1-.27-1.09,2.2,2.2,0,0,1,.34-1.2,2.42,2.42,0,0,1,1-.87,4.39,4.39,0,0,1,1.82-.33,5.5,5.5,0,0,1,1.45.19,4.08,4.08,0,0,1,1.25.55l-.39,1a3.9,3.9,0,0,0-1.14-.52,4.39,4.39,0,0,0-1.17-.16,3.17,3.17,0,0,0-1.16.18,1.4,1.4,0,0,0-.67.48,1.13,1.13,0,0,0-.21.67,1,1,0,0,0,.28.71,2.28,2.28,0,0,0,.74.42c.3.1.63.19,1,.28s.72.18,1.08.28a4.28,4.28,0,0,1,1,.41,2,2,0,0,1,.72.67,1.88,1.88,0,0,1,.28,1.08,2.17,2.17,0,0,1-.35,1.18,2.37,2.37,0,0,1-1.07.88A4.47,4.47,0,0,1,103.34,61.47Z" transform="translate(-1.14 -6.36)"/><path class="cls-1" d="M114.8,61.37V54h-2.88V53h7V54H116v7.35Z" transform="translate(-1.14 -6.36)"/><path class="cls-1" d="M128.75,61.47a4.74,4.74,0,0,1-1.78-.33,4.1,4.1,0,0,1-1.42-.9,4.41,4.41,0,0,1-.94-4.77,4.19,4.19,0,0,1,.94-1.36A4.27,4.27,0,0,1,127,53.2a4.7,4.7,0,0,1,1.78-.32,4.84,4.84,0,0,1,1.77.31,4.52,4.52,0,0,1,1.42.9,4.19,4.19,0,0,1,.94,1.37,4.62,4.62,0,0,1,0,3.43,4.15,4.15,0,0,1-.94,1.36,4.19,4.19,0,0,1-1.42.9A4.84,4.84,0,0,1,128.75,61.47Zm0-1.07a3.37,3.37,0,0,0,1.29-.24,3.18,3.18,0,0,0,1-.68,3.09,3.09,0,0,0,.68-1,3.41,3.41,0,0,0,.25-1.29,3.36,3.36,0,0,0-.25-1.28,3.13,3.13,0,0,0-.68-1,3.18,3.18,0,0,0-1-.68,3.37,3.37,0,0,0-1.29-.24,3.46,3.46,0,0,0-1.3.24,3.29,3.29,0,0,0-1,.68,3.16,3.16,0,0,0-.93,2.31,3.4,3.4,0,0,0,.24,1.29,3.14,3.14,0,0,0,1.73,1.7A3.46,3.46,0,0,0,128.75,60.4Z" transform="translate(-1.14 -6.36)"/><path class="cls-1" d="M140,61.37V53h3.28a4.64,4.64,0,0,1,1.88.35,2.66,2.66,0,0,1,1.2,1,3.14,3.14,0,0,1,0,3.14,2.7,2.7,0,0,1-1.2,1,4.64,4.64,0,0,1-1.88.35h-2.62l.54-.56v3.11Zm1.2-3-.54-.58h2.58a2.68,2.68,0,0,0,1.75-.5,1.74,1.74,0,0,0,.59-1.4,1.72,1.72,0,0,0-.59-1.39,2.68,2.68,0,0,0-1.75-.49h-2.58l.54-.6Zm4.42,3-2.14-3h1.28l2.16,3Z" transform="translate(-1.14 -6.36)"/><path class="cls-1" d="M154.78,60.33h4.9v1h-6.1V53h5.93V54h-4.73Zm-.11-3.73H159v1h-4.32Z" transform="translate(-1.14 -6.36)"/><rect class="cls-1" x="21.39" y="55.65" width="4.03" height="4.03" transform="translate(-35.06 27.08) rotate(-45)"/><rect class="cls-1" x="167.39" y="55.65" width="4.03" height="4.03" transform="translate(7.7 130.32) rotate(-45)"/></svg>